<svg width="918" height="720" viewBox="0 0 918 720" fill="none" xmlns="http://www.w3.org/2000/svg">
<path fill-rule="evenodd" clip-rule="evenodd" d="M343.311 267.547C343.459 265.431 344.096 245.687 345.223 208.314C345.505 198.96 339.025 190.756 329.86 188.863C329.246 188.736 328.938 188.672 328.938 188.672C317.877 187.899 308.032 195.64 306.174 206.572L296.689 262.378" fill="white"/>
<path d="M329.046 189.102L329.938 189.286C338.888 191.135 345.215 199.147 344.94 208.282C343.814 245.629 343.176 265.39 343.029 267.497C343.011 267.746 343.199 267.961 343.448 267.979C343.697 267.996 343.913 267.809 343.93 267.559C344.079 265.434 344.716 245.707 345.843 208.309C346.131 198.735 339.5 190.339 330.12 188.401L329.198 188.211L329.139 188.203C317.845 187.413 307.793 195.316 305.897 206.477L296.412 262.284C296.371 262.53 296.536 262.763 296.782 262.805C297.028 262.847 297.261 262.681 297.303 262.436L306.787 206.629C308.604 195.935 318.228 188.36 329.046 189.102Z" fill="#068D9D"/>
<path fill-rule="evenodd" clip-rule="evenodd" d="M350.666 262.636L355.512 224.963C355.979 221.336 353.417 218.018 349.79 217.551C349.51 217.515 349.228 217.497 348.945 217.497C344.456 217.497 340.475 220.385 339.081 224.653L326.665 262.66L350.666 262.636Z" fill="white"/>
<path d="M351.056 262.811C351.283 262.811 351.475 262.642 351.504 262.418L356.349 224.745C356.847 220.87 354.111 217.326 350.237 216.827C349.937 216.79 349.636 216.77 349.335 216.77C344.649 216.77 340.495 219.783 339.041 224.237L326.625 262.245C326.529 262.537 326.747 262.836 327.054 262.836L351.056 262.811ZM350.658 261.909L327.677 261.932L339.899 224.517C341.232 220.435 345.04 217.673 349.335 217.673C349.598 217.673 349.86 217.69 350.122 217.724C353.501 218.158 355.888 221.25 355.453 224.63L350.658 261.909Z" fill="#068D9D"/>
<path fill-rule="evenodd" clip-rule="evenodd" d="M231.221 355.094L277.21 340.103C282.422 338.404 286.225 333.902 287.028 328.478L296.858 262.058H350.15L340.721 346.452C339.06 361.317 331.052 374.738 318.759 383.261L266.448 419.526L231.221 355.094Z" fill="#AEECEF"/>
<path fill-rule="evenodd" clip-rule="evenodd" d="M341.72 338.835C331.081 344.656 323.353 351.28 318.536 358.707C313.719 366.134 309.604 377.274 306.191 392.128C309.138 389.979 311.647 388.173 313.719 386.708C322.201 380.714 328.72 375.261 332.687 368.944C338.107 360.313 341.117 350.277 341.72 338.835Z" fill="#80DED9"/>
<path d="M283.833 334.977C283.837 334.971 283.841 334.965 283.845 334.96C283.857 334.943 283.869 334.928 283.882 334.914C285.333 333.046 286.315 330.806 286.675 328.375L296.496 262.018C296.529 261.796 296.719 261.632 296.943 261.632H350.235C350.504 261.632 350.714 261.866 350.684 262.134L346.589 298.786C346.659 298.873 346.696 298.987 346.686 299.107C346.674 299.235 346.611 299.346 346.518 299.42L341.261 346.475C339.582 361.5 331.475 375.061 319.036 383.654L267.005 419.598C266.839 419.713 266.616 419.703 266.46 419.573C259.299 413.601 253.34 406.026 248.584 396.852C243.839 387.702 238.512 373.528 232.595 354.324C232.522 354.088 232.654 353.836 232.89 353.761L277.08 339.664C279.803 338.795 282.134 337.139 283.833 334.977ZM247.73 349.975L233.591 354.486C239.439 373.425 244.706 387.411 249.386 396.437C254.03 405.393 259.826 412.8 266.775 418.659L280.035 409.499L247.73 349.975ZM248.606 349.695L280.782 408.982L318.522 382.911C330.747 374.467 338.713 361.14 340.363 346.374L345.604 299.464L292.602 294.699C292.592 294.699 292.583 294.698 292.573 294.696L287.569 328.507C287.207 330.949 286.256 333.209 284.853 335.126L316.39 357.738C316.593 357.884 316.639 358.166 316.494 358.369C316.349 358.571 316.067 358.618 315.864 358.472L284.297 335.839C282.512 337.992 280.124 339.641 277.355 340.524L248.606 349.695ZM292.705 293.802L345.705 298.566L349.73 262.535H297.333L292.705 293.802Z" fill="#068D9D"/>
<path fill-rule="evenodd" clip-rule="evenodd" d="M148.422 364.428C148.422 364.428 134.371 371.754 106.27 386.407L118.228 408.362L154.443 383.974C150.429 370.943 148.422 364.428 148.422 364.428Z" fill="#80DED9"/>
<path fill-rule="evenodd" clip-rule="evenodd" d="M427.831 464.088L419.099 393.031L423.615 390.924L442.283 363.224L445.595 362.321C446.793 362.034 447.696 362.034 448.305 362.321C448.913 362.607 449.714 363.409 450.713 364.729V449.034C450.051 450.628 449.449 451.731 448.907 452.346C448.365 452.959 447.462 453.561 446.197 454.152L427.831 464.088ZM347.44 526.716L404.647 505.638L407.357 513.466L444.692 523.101L446.197 525.811C445.86 527.8 445.456 529.209 444.993 530.028C444.529 530.847 443.626 531.75 442.283 532.738L364.301 551.104C362.688 551.266 361.383 551.062 360.387 550.502C359.391 549.936 358.387 548.834 357.376 547.19L347.44 526.716Z" fill="white"/>
<path d="M147.997 364.053L105.845 386.032C105.621 386.149 105.536 386.427 105.657 386.649L117.615 408.603C117.743 408.837 118.043 408.91 118.264 408.761L154.48 384.373C154.645 384.263 154.718 384.056 154.659 383.866L148.637 364.32C148.554 364.051 148.247 363.922 147.997 364.053ZM153.697 383.812L118.171 407.735L106.67 386.621L147.934 365.105L153.697 383.812Z" fill="#068D9D"/>
<path fill-rule="evenodd" clip-rule="evenodd" d="M277.588 439.097V440.026L236.339 360.212L177.928 384.902C179.017 420.547 184.007 444.233 192.897 455.958C201.788 467.684 217.574 471.397 240.253 467.098H273.072L277.588 439.097Z" fill="#AEECEF"/>
<path d="M278.125 439.098V440.026C278.125 440.2 278.039 440.33 277.92 440.406L273.603 467.171C273.567 467.389 273.379 467.551 273.157 467.551H240.381C217.572 471.865 201.629 468.109 192.623 456.231C183.659 444.41 178.653 420.649 177.562 384.916C177.556 384.729 177.666 384.558 177.838 384.486L236.249 359.797C236.466 359.705 236.717 359.796 236.826 360.005L277.487 438.682C277.754 438.57 278.125 438.721 278.125 439.098ZM278.009 439.853L278.029 439.73L277.96 439.598C278.001 439.676 278.018 439.765 278.009 439.853ZM236.215 360.792L178.475 385.197C179.58 420.583 184.551 444.09 193.343 455.685C202.112 467.252 217.726 470.925 240.255 466.655L240.338 466.647H272.773L277.09 439.88L236.215 360.792Z" fill="#068D9D"/>
<path fill-rule="evenodd" clip-rule="evenodd" d="M266.749 419.526L269.76 425.247C260.508 432.545 253.181 437.664 247.781 440.603C242.38 443.542 236.458 446.252 230.016 448.732L226.403 442.409C232.275 439.874 237.896 437.064 243.264 433.979C248.633 430.894 256.461 426.076 266.749 419.526Z" fill="#80DED9"/>
<path fill-rule="evenodd" clip-rule="evenodd" d="M284.513 542.071L427.228 464.69L419.4 393.332L277.889 462.883" fill="#80DED9"/>
<path d="M266.497 418.851C255.911 425.987 247.69 431.2 241.839 434.489C235.998 437.771 230.504 440.268 225.357 441.981C225.12 442.06 224.993 442.315 225.072 442.552C225.15 442.788 225.406 442.917 225.643 442.838C230.847 441.107 236.393 438.585 242.281 435.276C248.158 431.973 256.397 426.748 267.001 419.6C267.208 419.461 267.263 419.18 267.123 418.973C266.984 418.767 266.703 418.712 266.497 418.851Z" fill="#068D9D"/>
<path d="M269.703 424.888C259.875 432.34 251.291 438.049 243.953 442.012C236.647 445.958 231.666 448.05 229.073 448.283C228.825 448.304 228.641 448.524 228.663 448.772C228.686 449.021 228.905 449.204 229.154 449.182C231.912 448.936 236.967 446.812 244.382 442.807C251.765 438.819 260.387 433.086 270.249 425.607C270.448 425.457 270.486 425.173 270.336 424.974C270.185 424.776 269.902 424.737 269.703 424.888Z" fill="#068D9D"/>
<path d="M426.897 464.282C426.879 464.244 426.867 464.203 426.867 464.16L419.039 393.729L277.873 463.289C277.649 463.399 277.378 463.307 277.268 463.084C277.158 462.86 277.25 462.589 277.474 462.479L422.79 390.873L441.379 363.466C442.036 362.502 443.132 361.932 444.294 361.948C444.709 361.954 445.107 362.032 445.468 362.17C445.492 362.128 445.534 362.078 445.595 362.019C445.793 361.819 446.028 361.692 446.299 361.638C446.57 361.584 446.847 361.557 447.124 361.556C449.461 361.553 451.357 363.445 451.363 365.783L451.49 446.658C451.496 450.135 449.762 453.558 446.432 454.398V454.46C446.432 454.623 446.341 454.772 446.197 454.851L284.512 542.469C284.293 542.583 284.019 542.505 283.9 542.282C283.781 542.065 283.863 541.794 284.082 541.674L426.897 464.282ZM427.734 463.827L445.534 454.182L446.805 365.447C446.823 364.034 445.697 362.872 444.282 362.852C443.421 362.839 442.614 363.261 442.126 363.974L423.471 391.478C423.429 391.543 423.368 391.596 423.296 391.63L419.816 393.346C419.882 393.415 419.924 393.505 419.936 393.606L427.734 463.827ZM446.401 362.698C447.208 363.344 447.726 364.344 447.708 365.46L446.45 453.458C449.22 452.618 450.593 449.638 450.587 446.659L450.46 365.785C450.454 363.945 448.961 362.457 447.124 362.46C446.907 362.46 446.691 362.481 446.474 362.524C446.45 362.59 446.426 362.649 446.401 362.698Z" fill="#068D9D"/>
<path fill-rule="evenodd" clip-rule="evenodd" d="M170.702 453.572L175.304 478.562L209.624 539.139C218.654 555.078 237.903 562.13 255.092 555.789L267.121 551.357C278.694 547.087 288.677 539.373 295.721 529.245L326.81 484.561L347.44 526.716L404.647 505.637L364.43 410.526C360.024 400.105 349.807 393.332 338.493 393.332C326.538 393.332 315.069 398.069 306.598 406.504L252.683 460.195" fill="#AEECEF"/>
<path fill-rule="evenodd" clip-rule="evenodd" d="M304.385 408.688C314.02 416.115 324.056 421.434 334.493 424.646C344.931 427.857 356.473 427.155 369.119 422.538C366.296 413.187 363.185 406.663 359.785 402.967C355.735 398.565 348.182 394.645 343.827 393.634C338.113 392.307 327.559 393.842 319.138 397.849C315.087 399.776 310.169 403.389 304.385 408.688Z" fill="#80DED9"/>
<path d="M446.052 524.84L446.215 524.8L446.221 524.828C447.16 528.715 444.77 532.629 440.88 533.569L365.662 551.7C362.268 552.519 358.759 550.959 357.09 547.912C356.947 547.888 356.819 547.798 356.754 547.665L326.739 485.433L296.092 529.486C288.995 539.687 278.936 547.461 267.277 551.76L255.248 556.192C237.852 562.605 218.371 555.47 209.231 539.343L174.911 478.763C174.886 478.719 174.869 478.671 174.86 478.622L170.259 453.632C170.213 453.387 170.375 453.151 170.62 453.106C170.866 453.061 171.102 453.223 171.147 453.469L175.734 478.384L210.017 538.898C218.938 554.645 237.955 561.606 254.936 555.343L266.965 550.911C278.45 546.678 288.359 539.018 295.35 528.968L326.439 484.282C326.636 483.999 327.066 484.033 327.217 484.344L347.423 526.24L403.984 505.401L370.041 424.988C349.956 434.778 327.504 430.083 302.743 410.96L253.002 460.494C252.825 460.67 252.54 460.669 252.363 460.493C252.187 460.316 252.188 460.03 252.364 459.854L306.279 406.163C314.836 397.643 326.418 392.859 338.493 392.859C349.988 392.859 360.366 399.743 364.836 410.334L404.91 505.271C404.981 505.322 405.038 505.394 405.071 505.482C405.098 505.556 405.104 505.632 405.094 505.705L408.071 512.761L443.445 521.691C444.709 522.01 445.685 523.013 445.974 524.284C446.016 524.47 446.04 524.656 446.052 524.84ZM445.51 526.921C445.035 527.655 444.282 528.215 443.361 528.426L358.029 547.732C359.555 550.255 362.55 551.525 365.451 550.821L440.663 532.689C443.439 532.021 445.342 529.624 445.51 526.921ZM347.817 527.059L357.411 546.949L443.162 527.547C444.541 527.234 445.402 525.863 445.095 524.484C444.878 523.544 444.155 522.803 443.222 522.567L407.632 513.581C407.495 513.547 407.382 513.45 407.327 513.319L404.336 506.234L347.817 527.059ZM369.689 424.154L364.004 410.685C359.675 400.429 349.625 393.763 338.493 393.763C326.658 393.763 315.304 398.452 306.917 406.803L303.388 410.317C327.881 429.2 349.963 433.793 369.689 424.154Z" fill="#068D9D"/>
<path fill-rule="evenodd" clip-rule="evenodd" d="M200.209 354.191L87.5919 426.111C61.9754 442.47 52.5665 475.354 65.6517 502.787L73.7275 519.718C88.046 549.737 123.987 562.461 154.004 548.141C155.607 547.376 157.176 546.545 158.704 545.642L210.223 515.209C219.818 509.542 227.652 501.323 232.853 491.468L233.479 490.282C238.869 480.069 239.037 467.892 233.932 457.533L221.285 431.871C202.511 445.868 192.375 455.503 190.875 460.775C189.538 465.477 174.23 475.164 144.953 489.835C138.603 493.017 130.874 490.787 127.195 484.712C124.24 479.832 125.8 473.481 130.679 470.526C131.237 470.188 131.826 469.903 132.437 469.677L187.262 449.334" fill="#AEECEF"/>
<path fill-rule="evenodd" clip-rule="evenodd" d="M64.1172 499.917C65.6227 504.133 72.1593 517.329 74.6553 521.596C77.2807 526.085 80.0748 530.329 83.6879 534.544C87.266 538.717 92.0798 542.842 99.3444 546.588C101.775 547.84 104.385 549.141 107.173 550.502C105.297 534.677 103.19 523.636 100.85 517.38C98.953 512.309 97.0236 507.226 94.2259 503.229C87.2004 493.193 75.8452 483.049 60.1609 472.795C58.7838 479.636 60.1025 488.677 64.1172 499.917Z" fill="#80DED9"/>
<path fill-rule="evenodd" clip-rule="evenodd" d="M192.983 455.055L193.585 462.884C200.83 476.598 205.285 484.877 206.948 487.722C208.699 490.714 212.173 498.092 217.371 509.853C223.196 504.808 227.812 499.589 231.221 494.197C234.629 488.804 236.737 483.385 237.544 477.938C238.346 470.712 236.339 462.583 231.522 453.55C229.119 449.044 225.606 441.517 220.984 430.968C207.882 437.906 198.749 443.627 193.585 448.13C188.421 452.633 188.221 454.942 192.983 455.055Z" fill="white"/>
<path d="M233.311 457.457C238.353 467.685 238.186 479.711 232.863 489.795L232.238 490.981C227.075 500.762 219.301 508.919 209.778 514.544L158.075 545.082C156.613 545.949 155.114 546.75 153.584 547.485C123.839 561.793 88.1266 549.279 73.819 519.531L66.0425 503.362C53.0398 476.33 62.0905 443.848 87.1975 427.433L198.649 354.569C198.858 354.433 198.916 354.153 198.78 353.944C198.644 353.735 198.364 353.676 198.155 353.813L86.7031 426.677C61.2167 443.34 52.0293 476.313 65.2284 503.754L73.0055 519.923C87.5287 550.116 123.781 562.822 153.976 548.298C155.529 547.551 157.05 546.738 158.534 545.865L210.237 515.322C219.904 509.612 227.796 501.332 233.037 491.403L233.662 490.217C239.12 479.876 239.291 467.546 234.122 457.058L221.474 431.396C221.367 431.178 221.106 431.084 220.884 431.183C205.909 437.898 196.721 442.922 193.269 446.302C191.69 447.847 190.815 449.801 190.456 452.169C190.233 453.646 190.217 454.921 190.308 457.203C190.388 459.207 190.382 459.822 190.225 460.376C188.943 464.884 173.617 474.582 144.535 489.155C138.396 492.232 130.923 490.076 127.366 484.202C124.583 479.608 126.052 473.628 130.646 470.846C131.212 470.503 131.811 470.219 132.435 469.998L189.521 449.76C189.756 449.677 189.878 449.418 189.795 449.184C189.712 448.949 189.454 448.825 189.218 448.909L132.133 469.146C131.451 469.388 130.797 469.698 130.178 470.073C125.157 473.114 123.552 479.649 126.593 484.67C130.394 490.947 138.379 493.25 144.94 489.963C174.412 475.193 189.701 465.519 191.094 460.623C191.29 459.932 191.297 459.305 191.211 457.167C191.122 454.94 191.138 453.708 191.35 452.304C191.681 450.116 192.476 448.342 193.901 446.947C197.218 443.7 206.22 438.764 220.857 432.186L233.311 457.457Z" fill="#068D9D"/>
<path fill-rule="evenodd" clip-rule="evenodd" d="M236.425 360.152C225.904 336.779 219.581 321.251 217.456 313.569C210.569 288.668 205.762 266.948 180.036 266.948C154.309 266.948 133.453 287.803 133.453 313.531C133.453 320.859 139.776 344.356 152.422 384.024C171.072 383.949 186.16 383.02 197.688 381.237C209.215 379.455 222.127 372.426 236.425 360.152Z" fill="#AEECEF" stroke="#068D9D" stroke-width="1.5" stroke-linecap="round" stroke-linejoin="round"/>
<path fill-rule="evenodd" clip-rule="evenodd" d="M236.339 360.08C225.818 336.707 219.496 321.179 217.37 313.497C210.483 288.596 205.676 266.875 179.95 266.875C154.223 266.875 133.367 287.732 133.367 313.459C133.367 320.787 139.69 344.285 152.336 383.952C170.986 383.877 186.075 382.948 197.602 381.166C209.129 379.383 222.042 372.355 236.339 360.08Z" fill="#AEECEF"/>
<path fill-rule="evenodd" clip-rule="evenodd" d="M236.339 360.08C225.818 336.707 219.496 321.179 217.37 313.497C210.483 288.596 205.676 266.875 179.95 266.875C154.223 266.875 133.367 287.732 133.367 313.459C133.367 320.787 139.69 344.285 152.336 383.952C170.986 383.877 186.075 382.948 197.602 381.166C209.129 379.383 222.042 372.355 236.339 360.08Z" stroke="#068D9D" stroke-width="1.5" stroke-linecap="round" stroke-linejoin="round"/>
<path d="M236.751 359.895C226.24 336.543 219.923 321.029 217.806 313.377C217.529 312.375 216.301 307.903 215.971 306.71C211.918 292.086 209.114 284.619 204.599 278.344C198.898 270.421 191.099 266.424 179.95 266.424C153.974 266.424 132.916 287.482 132.916 313.459C132.916 320.857 139.239 344.357 151.906 384.089C151.966 384.277 152.14 384.403 152.338 384.403C171.009 384.328 186.119 383.398 197.671 381.612C209.295 379.814 222.278 372.747 236.634 360.423C236.786 360.292 236.833 360.078 236.751 359.895ZM197.533 380.719C186.099 382.487 171.143 383.414 152.666 383.498C140.108 344.088 133.819 320.698 133.819 313.459C133.819 287.981 154.473 267.327 179.95 267.327C190.809 267.327 198.335 271.185 203.866 278.872C208.297 285.031 211.076 292.429 215.101 306.952C215.431 308.143 216.658 312.615 216.936 313.618C219.059 321.296 225.341 336.734 235.789 359.958C221.652 372.046 208.897 378.962 197.533 380.719Z" fill="#068D9D"/>
<path d="M158.161 334.896C158.161 334.896 183.313 344.773 221.531 331.342C222.188 331.111 222.908 330.699 223.693 330.104C221.717 326.15 220.513 323.441 220.08 321.974C218.319 316.005 218.156 312.214 216.166 308.425C214.88 305.977 214.43 301.799 213.155 297.887C212.468 295.777 211.163 292.465 209.241 287.951C207.332 284.161 206.027 281.652 205.327 280.424C204.255 278.544 204.255 276.709 202.857 276.912C195.304 278.012 187.159 282.911 178.421 291.61C158.117 311.825 158.161 334.896 158.161 334.896Z" fill="#068D9D"/>
<path fill-rule="evenodd" clip-rule="evenodd" d="M174.315 296.081C176.423 293.672 177.589 292.164 179.434 290.36C181.278 288.557 183.649 286.446 187.864 283.435C190.072 289.256 192.28 295.579 195.09 304.21C199.306 317.157 192.631 319.199 184.552 310.533C179.167 304.756 175.955 300.139 174.315 296.081ZM198.198 295.333C199.699 295.438 200.517 301.954 200.976 303.073C201.232 303.697 200.934 304.409 200.311 304.665C199.741 304.898 199.086 304.671 198.784 304.135C197.025 301.011 196.151 299.137 196.164 298.511C196.197 296.928 196.696 295.228 198.198 295.333Z" fill="white"/>
<path d="M189.756 448.13C210.043 448.13 226.489 431.684 226.489 411.397C226.489 391.111 210.043 374.665 189.756 374.665C169.469 374.665 153.023 391.111 153.023 411.397C153.023 431.684 169.469 448.13 189.756 448.13Z" fill="#068D9D"/>
<path d="M158.582 331.811C155.407 317.721 160.071 304.324 172.615 291.581C185.162 278.835 194.026 272.661 199.055 273.047C199.304 273.066 198.985 273.146 199.004 272.898C199.024 272.649 198.952 272.616 198.703 272.597C198.559 272.586 198.834 272.129 198.685 272.128C193.234 272.069 184.377 278.345 171.971 290.947C159.224 303.897 154.454 317.598 157.701 332.01C157.756 332.253 157.998 332.406 158.241 332.352C158.485 332.297 158.637 332.055 158.582 331.811Z" fill="#068D9D"/>
<path fill-rule="evenodd" clip-rule="evenodd" d="M165.97 440.001L179.519 405.354L213.5 395.505C214.778 395.134 216.114 395.869 216.484 397.147C216.707 397.917 216.534 398.746 216.02 399.361L196.681 422.538L195.09 448.13L165.97 440.001Z" fill="white"/>
<path fill-rule="evenodd" clip-rule="evenodd" d="M179.443 405.375C174.821 410.425 171.882 413.744 170.627 415.334C164.035 423.677 164.278 426.831 167.4 428.86C173.422 432.774 179.659 440.625 183.875 433.399C186.684 428.581 185.207 419.24 179.443 405.375Z" fill="#AEECEF"/>
<path d="M179.186 405.049C179.409 404.806 179.809 404.876 179.936 405.181C185.752 419.17 187.246 428.622 184.34 433.605C182.682 436.446 180.572 437.301 177.985 436.478C176.116 435.883 174.702 434.916 170.944 431.962C170.045 431.255 169.518 430.847 168.952 430.426C168.328 429.962 167.765 429.566 167.229 429.217C163.444 426.757 164.135 422.896 170.348 415.032C171.613 413.431 174.555 410.107 179.186 405.049ZM183.56 433.149C186.23 428.571 184.86 419.561 179.373 406.183C175.034 410.93 172.259 414.07 171.057 415.592C165.128 423.095 164.539 426.391 167.721 428.46C168.275 428.82 168.853 429.227 169.491 429.701C170.065 430.129 170.597 430.54 171.502 431.252C175.158 434.126 176.539 435.069 178.259 435.617C180.436 436.31 182.112 435.631 183.56 433.149ZM197.73 421.377C197.872 421.172 198.154 421.121 198.359 421.264C198.563 421.406 198.614 421.687 198.472 421.892C196.723 424.411 195.112 425.699 193.585 425.699C193.335 425.699 193.133 425.497 193.133 425.248C193.133 424.998 193.335 424.796 193.585 424.796C194.733 424.796 196.134 423.675 197.73 421.377Z" fill="#068D9D"/>
<path d="M156.551 340.341C159.045 340.341 161.067 338.319 161.067 335.824C161.067 333.33 159.045 331.308 156.551 331.308C154.057 331.308 152.035 333.33 152.035 335.824C152.035 338.319 154.057 340.341 156.551 340.341Z" fill="white"/>
<path d="M156.336 340.792C159.079 340.792 161.304 338.568 161.304 335.824C161.304 333.081 159.079 330.856 156.336 330.856C153.592 330.856 151.368 333.081 151.368 335.824C151.368 338.568 153.592 340.792 156.336 340.792ZM156.336 339.889C154.091 339.889 152.271 338.069 152.271 335.824C152.271 333.58 154.091 331.76 156.336 331.76C158.581 331.76 160.4 333.58 160.4 335.824C160.4 338.069 158.581 339.889 156.336 339.889Z" fill="#068D9D"/>
<path d="M156.335 338.384C157.902 338.384 159.196 337.253 159.196 335.824C159.196 334.397 157.902 333.265 156.335 333.265C154.768 333.265 153.475 334.397 153.475 335.824C153.475 337.253 154.768 338.384 156.335 338.384ZM156.335 337.48C155.242 337.48 154.378 336.725 154.378 335.824C154.378 334.925 155.242 334.168 156.335 334.168C157.428 334.168 158.292 334.925 158.292 335.824C158.292 336.725 157.428 337.48 156.335 337.48Z" fill="#068D9D"/>
<path fill-rule="evenodd" clip-rule="evenodd" d="M195.09 446.022L193.369 462.883L167.777 477.937L147.518 488.475L137.583 475.228C145.89 474.746 150.607 473.442 151.734 471.313C155.068 465.015 159.785 454.678 165.885 440.302L195.09 446.022Z" fill="white"/>
<path d="M195.177 445.278C195.406 445.323 195.563 445.535 195.539 445.767L193.818 462.628C193.804 462.771 193.722 462.899 193.598 462.972L167.985 478.037L147.727 488.575C147.531 488.677 147.29 488.622 147.157 488.446L137.221 475.198C137.005 474.91 137.197 474.497 137.557 474.476C145.696 474.005 150.316 472.727 151.334 470.802C154.661 464.517 159.374 454.189 165.469 439.825C165.552 439.628 165.762 439.516 165.971 439.558L195.177 445.278ZM166.158 440.514C160.122 454.726 155.449 464.961 152.133 471.224C150.94 473.477 146.402 474.796 138.446 475.326L147.65 487.597L167.547 477.247L192.943 462.309L194.599 446.085L166.158 440.514ZM193.14 462.193L192.92 462.536L192.943 462.309L193.14 462.193Z" fill="#068D9D"/>
<path fill-rule="evenodd" clip-rule="evenodd" d="M85.1935 322.878C82.2001 322.878 79.7739 320.451 79.7739 317.458C79.7739 314.465 82.2001 312.038 85.1935 312.038C88.1869 312.038 90.6131 314.465 90.6131 317.458C90.6131 320.451 88.1869 322.878 85.1935 322.878ZM138.185 336.426L139.605 341.846C139.264 341.962 138.927 342.087 138.594 342.222C129.073 346.076 124.479 356.918 128.332 366.438L131.174 373.46L125.755 376.471L122.549 366.034C119.09 354.775 124.506 342.696 135.214 337.789L138.185 336.426Z" fill="white"/>
<path d="M97.6838 342.816C97.6977 342.723 97.682 342.629 97.6399 342.545L87.4029 322.372C87.2897 322.15 87.0181 322.061 86.7959 322.174C86.5731 322.287 86.4846 322.559 86.5972 322.781L96.7691 342.826L95.5859 350.813C95.5557 351.017 95.6677 351.216 95.858 351.296L104.116 354.752L117.614 379.836C117.733 380.056 118.007 380.138 118.226 380.02C118.446 379.902 118.528 379.628 118.409 379.408L104.835 354.183C104.786 354.091 104.708 354.02 104.612 353.98L96.5307 350.598L97.6838 342.816Z" fill="#068D9D"/>
<path d="M84.9776 323.329C81.7349 323.329 79.1064 320.701 79.1064 317.458C79.1064 314.216 81.7349 311.587 84.9776 311.587C88.2197 311.587 90.8488 314.216 90.8488 317.458C90.8488 320.701 88.2197 323.329 84.9776 323.329ZM84.9776 322.426C87.7211 322.426 89.9456 320.202 89.9456 317.458C89.9456 314.714 87.7211 312.49 84.9776 312.49C82.2335 312.49 80.0097 314.714 80.0097 317.458C80.0097 320.202 82.2335 322.426 84.9776 322.426ZM137.78 336.016C138.036 335.9 138.334 336.041 138.406 336.312L139.826 341.732C139.886 341.961 139.759 342.198 139.534 342.274C139.202 342.387 138.872 342.509 138.547 342.64C129.257 346.401 124.775 356.979 128.535 366.269L131.377 373.291C131.462 373.502 131.377 373.744 131.178 373.855L125.758 376.866C125.507 377.006 125.191 376.879 125.107 376.604L121.901 366.166C118.376 354.691 123.896 342.38 134.809 337.378L137.78 336.016ZM135.186 338.199C124.684 343.012 119.373 354.859 122.765 365.901L125.807 375.806L130.39 373.26L127.698 366.608C123.75 356.856 128.456 345.751 138.208 341.803C138.419 341.718 138.632 341.636 138.846 341.558L137.668 337.061L135.186 338.199Z" fill="#068D9D"/>
<path d="M96.4426 500.117C104.33 510.869 109.354 528.047 111.537 551.664L110.637 551.748C108.436 527.938 103.34 510.748 95.3707 500.189C88.857 491.558 81.8627 484.449 74.6607 478.718C69.3755 474.511 64.4298 471.393 60.0972 469.219L60.5024 468.412C64.8887 470.613 69.8873 473.764 75.2238 478.011C82.4113 483.732 89.3905 490.809 95.8958 499.386L126.227 482.96C126.446 482.842 126.72 482.923 126.84 483.143C126.958 483.362 126.877 483.636 126.657 483.754L96.4426 500.117ZM139.529 491.578C139.41 491.359 139.491 491.084 139.709 490.965C139.929 490.845 140.203 490.926 140.322 491.145L167.184 540.349C167.304 540.566 167.223 540.843 167.005 540.957C166.785 541.078 166.511 540.999 166.392 540.783L139.529 491.578ZM129.674 470.814C129.784 471.038 129.691 471.308 129.467 471.418C129.244 471.528 128.973 471.436 128.863 471.212L102.251 417.016C102.141 416.792 102.234 416.522 102.458 416.411C102.681 416.302 102.952 416.394 103.062 416.618L129.674 470.814Z" fill="#068D9D"/>
<path d="M152.637 384.299L165.97 411.397" stroke="#068D9D" stroke-width="1.5" stroke-linecap="round" stroke-linejoin="round"/>
<path d="M193.52 462.732L217.37 509.644" stroke="#068D9D" stroke-width="1.5" stroke-linecap="round" stroke-linejoin="round"/>
<path d="M570.124 248.075C570.365 248.007 570.612 248.147 570.678 248.387C570.744 248.627 570.606 248.876 570.365 248.944L532.043 259.74C522.679 262.377 517.229 272.106 519.867 281.469C520.481 283.651 521.511 285.695 522.902 287.487L528.52 294.734C533.97 301.76 532.687 311.872 525.66 317.321C522.504 319.767 518.554 320.954 514.574 320.65L495.25 319.178C485.44 318.432 475.86 322.407 469.465 329.881L460.089 340.831C459.926 341.02 459.643 341.043 459.451 340.88C459.264 340.718 459.24 340.433 459.403 340.244L468.778 329.294C475.36 321.601 485.224 317.509 495.316 318.278L514.646 319.75C518.403 320.036 522.131 318.916 525.106 316.607C531.742 311.464 532.946 301.92 527.803 295.287L522.185 288.04C520.728 286.156 519.644 284.008 518.994 281.714C516.224 271.87 521.956 261.643 531.796 258.87L570.124 248.075ZM503.704 378.88V371.051C503.704 370.719 503.975 370.449 504.307 370.449C504.638 370.449 504.909 370.719 504.909 371.051V378.88H512.737C513.068 378.88 513.339 379.15 513.339 379.482C513.339 379.815 513.068 380.084 512.737 380.084H504.909V387.912C504.909 388.245 504.638 388.515 504.307 388.515C503.975 388.515 503.704 388.245 503.704 387.912V380.084H495.876C495.545 380.084 495.274 379.815 495.274 379.482C495.274 379.15 495.545 378.88 495.876 378.88H503.704ZM221.887 186.184V178.356C221.887 178.023 222.157 177.754 222.489 177.754C222.822 177.754 223.091 178.023 223.091 178.356V186.184H230.92C231.252 186.184 231.522 186.454 231.522 186.786C231.522 187.119 231.252 187.388 230.92 187.388H223.091V195.217C223.091 195.55 222.822 195.819 222.489 195.819C222.157 195.819 221.887 195.55 221.887 195.217V187.388H214.059C213.726 187.388 213.457 187.119 213.457 186.786C213.457 186.454 213.726 186.184 214.059 186.184H221.887ZM477.209 221.11V213.282C477.209 212.95 477.48 212.68 477.811 212.68C478.142 212.68 478.413 212.95 478.413 213.282V221.11H486.241C486.573 221.11 486.844 221.38 486.844 221.712C486.844 222.045 486.573 222.315 486.241 222.315H478.413V230.143C478.413 230.476 478.142 230.745 477.811 230.745C477.48 230.745 477.209 230.476 477.209 230.143V222.315H469.38C469.049 222.315 468.778 222.045 468.778 221.712C468.778 221.38 469.049 221.11 469.38 221.11H477.209ZM38.224 378.88V372.858C38.224 372.526 38.4938 372.256 38.8262 372.256C39.1586 372.256 39.4284 372.526 39.4284 372.858V378.88H45.4501C45.7825 378.88 46.0523 379.15 46.0523 379.482C46.0523 379.815 45.7825 380.084 45.4501 380.084H39.4284V386.106C39.4284 386.439 39.1586 386.708 38.8262 386.708C38.4938 386.708 38.224 386.439 38.224 386.106V380.084H32.2023C31.8699 380.084 31.6001 379.815 31.6001 379.482C31.6001 379.15 31.8699 378.88 32.2023 378.88H38.224ZM407.658 291.565V285.844C407.658 285.511 407.927 285.242 408.26 285.242C408.592 285.242 408.862 285.511 408.862 285.844V291.565H414.583C414.914 291.565 415.185 291.834 415.185 292.167C415.185 292.5 414.914 292.769 414.583 292.769H408.862V298.49C408.862 298.823 408.592 299.092 408.26 299.092C407.927 299.092 407.658 298.823 407.658 298.49V292.769H401.937C401.605 292.769 401.335 292.5 401.335 292.167C401.335 291.834 401.605 291.565 401.937 291.565H407.658ZM254.706 273.8V268.08C254.706 267.747 254.975 267.478 255.308 267.478C255.64 267.478 255.91 267.747 255.91 268.08V273.8H261.631C261.963 273.8 262.233 274.07 262.233 274.403C262.233 274.736 261.963 275.005 261.631 275.005H255.91V280.725C255.91 281.058 255.64 281.328 255.308 281.328C254.975 281.328 254.706 281.058 254.706 280.725V275.005H248.985C248.652 275.005 248.383 274.736 248.383 274.403C248.383 274.07 248.652 273.8 248.985 273.8H254.706Z" fill="#068D9D"/>
<path fill-rule="evenodd" clip-rule="evenodd" d="M195.492 405.063C192.567 402.967 190.174 402.443 188.313 403.491C185.521 405.063 181.931 408.209 183.925 412.14C185.92 416.071 187.515 419.216 189.509 419.216C191.504 419.216 195.093 419.61 197.088 415.285C198.417 412.402 197.885 408.995 195.492 405.063Z" fill="#AEECEF"/>
<path fill-rule="evenodd" clip-rule="evenodd" d="M195.329 406.872C195.123 409.004 194.412 410.378 193.199 410.994C192.137 411.533 190.476 411.846 188.217 411.935C187.22 411.974 186.38 411.197 186.341 410.201C186.327 409.859 186.411 409.521 186.583 409.224C187.825 407.078 188.926 405.761 189.887 405.273C190.894 404.762 192.209 404.643 193.831 404.917C194.766 405.074 195.42 405.928 195.329 406.872Z" fill="white"/>
<path d="M194.58 407.586C194.277 408.062 193.675 408.387 192.983 408.387C191.985 408.387 191.176 407.713 191.176 406.881C191.176 406.07 191.947 405.409 192.912 405.377C191.669 405.244 190.659 405.382 189.875 405.779C189.014 406.216 187.959 407.477 186.757 409.554C186.629 409.776 186.567 410.03 186.577 410.286C186.606 411.033 187.236 411.616 187.983 411.586C190.184 411.5 191.787 411.197 192.779 410.694C193.712 410.221 194.319 409.198 194.58 407.586ZM193.731 405.511C193.881 405.559 194.019 405.633 194.14 405.726C194.017 405.64 193.879 405.568 193.731 405.511ZM195.563 407.018C195.343 409.29 194.561 410.803 193.187 411.5C192.056 412.073 190.338 412.398 188.019 412.489C186.773 412.538 185.723 411.567 185.674 410.321C185.657 409.894 185.762 409.471 185.976 409.102C187.258 406.885 188.407 405.511 189.467 404.974C190.57 404.413 191.981 404.286 193.69 404.574C194.859 404.771 195.677 405.839 195.563 407.018Z" fill="#068D9D"/>
<path fill-rule="evenodd" clip-rule="evenodd" d="M214.36 395.295C212.951 394.943 211.464 395.185 209.901 396.022C209.607 396.179 209.497 396.544 209.654 396.837C209.687 396.899 209.731 396.955 209.783 397.001C210.38 397.536 211.103 397.84 211.951 397.913C213.075 398.008 214.38 398.008 215.865 397.913C216.467 396.569 215.966 395.697 214.36 395.295Z" fill="#AEECEF"/>
<path d="M214.771 394.794C213.246 394.413 211.647 394.674 209.989 395.56C209.476 395.835 209.282 396.474 209.557 396.987C209.615 397.095 209.691 397.192 209.783 397.274C210.454 397.875 211.269 398.219 212.214 398.299C213.362 398.397 214.689 398.397 216.195 398.3C216.363 398.289 216.51 398.187 216.578 398.034C217.302 396.419 216.636 395.26 214.771 394.794ZM212.291 397.399C211.538 397.335 210.908 397.07 210.386 396.602C210.372 396.59 210.362 396.576 210.353 396.56C210.314 396.487 210.342 396.396 210.415 396.357C211.884 395.57 213.257 395.347 214.551 395.67C215.79 395.98 216.174 396.5 215.854 397.416C214.507 397.492 213.319 397.487 212.291 397.399Z" fill="#068D9D"/>
<path fill-rule="evenodd" clip-rule="evenodd" d="M588.611 221.11L582.589 222.616L597.944 237.67L599.751 231.648" fill="white"/>
<path d="M357.677 527.619C360.172 527.619 362.194 525.595 362.194 523.1C362.194 520.606 360.172 518.584 357.677 518.584C355.183 518.584 353.161 520.606 353.161 523.1C353.161 525.595 355.183 527.619 357.677 527.619Z" fill="white"/>
<path d="M357.462 528.071C360.205 528.071 362.43 525.845 362.43 523.1C362.43 520.357 360.205 518.133 357.462 518.133C354.717 518.133 352.494 520.357 352.494 523.1C352.494 525.845 354.717 528.071 357.462 528.071ZM357.462 527.168C355.217 527.168 353.397 525.345 353.397 523.1C353.397 520.856 355.217 519.036 357.462 519.036C359.707 519.036 361.526 520.856 361.526 523.1C361.526 525.345 359.707 527.168 357.462 527.168Z" fill="#068D9D"/>
<path d="M425.723 455.958C428.216 455.958 430.239 453.937 430.239 451.442C430.239 448.948 428.216 446.925 425.723 446.925C423.23 446.925 421.207 448.948 421.207 451.442C421.207 453.937 423.23 455.958 425.723 455.958Z" fill="white"/>
<path d="M425.723 456.41C428.469 456.41 430.691 454.186 430.691 451.442C430.691 448.698 428.469 446.474 425.723 446.474C422.977 446.474 420.755 448.698 420.755 451.442C420.755 454.186 422.977 456.41 425.723 456.41ZM425.723 455.506C423.477 455.506 421.658 453.687 421.658 451.442C421.658 449.197 423.477 447.377 425.723 447.377C427.969 447.377 429.787 449.197 429.787 451.442C429.787 453.687 427.969 455.506 425.723 455.506Z" fill="#068D9D"/>
<path d="M357.461 525.66C359.028 525.66 360.322 524.529 360.322 523.1C360.322 521.673 359.028 520.541 357.461 520.541C355.894 520.541 354.601 521.673 354.601 523.1C354.601 524.529 355.894 525.66 357.461 525.66ZM357.461 524.756C356.368 524.756 355.504 524.001 355.504 523.1C355.504 522.201 356.368 521.444 357.461 521.444C358.554 521.444 359.418 522.201 359.418 523.1C359.418 524.001 358.554 524.756 357.461 524.756Z" fill="#068D9D"/>
<path d="M425.723 454.001C427.288 454.001 428.583 452.87 428.583 451.442C428.583 450.014 427.288 448.882 425.723 448.882C424.157 448.882 422.862 450.014 422.862 451.442C422.862 452.87 424.157 454.001 425.723 454.001ZM425.723 453.098C424.627 453.098 423.766 452.342 423.766 451.442C423.766 450.542 424.627 449.786 425.723 449.786C426.819 449.786 427.68 450.542 427.68 451.442C427.68 452.342 426.819 453.098 425.723 453.098Z" fill="#068D9D"/>
<path d="M160.547 336.158C165.277 340.477 175.607 342.401 191.574 341.997C207.509 341.593 218.824 339.169 225.535 334.695C225.742 334.557 225.798 334.276 225.66 334.069C225.522 333.861 225.241 333.805 225.034 333.944C218.496 338.302 207.331 340.694 191.551 341.094C175.804 341.493 165.66 339.603 161.156 335.491C160.972 335.323 160.686 335.336 160.518 335.52C160.35 335.705 160.363 335.99 160.547 336.158Z" fill="#068D9D"/>
<path fill-rule="evenodd" clip-rule="evenodd" d="M680.906 132.651C665.954 137.796 650.707 146.924 635.177 160.033C619.153 173.556 601.871 192.121 583.33 215.727L604.171 235.85C627.252 216.239 645.203 198.32 658.017 182.093C670.452 166.356 679.105 150.871 683.995 135.641C684.272 134.776 684.031 133.829 683.381 133.199C682.724 132.566 681.767 132.355 680.906 132.651Z" fill="#AEECEF"/>
<path fill-rule="evenodd" clip-rule="evenodd" d="M657.259 144.033L673.216 158.786C681.846 143.129 685.26 134.498 683.453 132.892C681.647 131.286 672.915 135 657.259 144.033Z" fill="#80DED9"/>
<path fill-rule="evenodd" clip-rule="evenodd" d="M595.391 235.5L585.901 247.004L586.804 238.273L579.277 240.079L582.288 233.455H573.557L584.498 224.818L581.698 222.072L588.503 220.371L588.719 221.247L583.48 222.557L597.728 236.523L599.318 231.218L600.185 231.477L598.161 238.215L595.391 235.5Z" fill="#068D9D"/>
<path d="M634.876 159.486C618.828 173.031 601.528 191.618 582.969 215.246C582.824 215.428 582.842 215.689 583.011 215.85L603.846 235.973C604.015 236.134 604.273 236.142 604.454 235.992C627.56 216.363 645.528 198.424 658.367 182.171C670.826 166.393 679.509 150.862 684.417 135.577C684.742 134.548 684.459 133.422 683.682 132.671C682.905 131.921 681.773 131.67 680.756 132.021C665.737 137.186 650.448 146.343 634.876 159.486ZM583.932 215.484C602.359 192.052 619.539 173.616 635.46 160.177C650.948 147.101 666.147 138.001 681.045 132.875C681.749 132.635 682.526 132.807 683.056 133.321C683.586 133.832 683.779 134.6 683.556 135.3C678.684 150.476 670.055 165.914 657.656 181.611C644.92 197.739 627.09 215.549 604.177 235.038L583.932 215.484Z" fill="#068D9D"/>
<path fill-rule="evenodd" clip-rule="evenodd" d="M614.318 183.775L611.632 188.558L583.637 215.545L562.688 216.791L560.911 215.075L614.318 183.775ZM635.454 204.012L605.093 257.958L603.34 256.211L604.226 235.242L630.721 206.781L635.454 204.012Z" fill="white"/>
<path d="M613.793 183.601C614.191 183.368 614.643 183.81 614.42 184.212L611.734 188.994L611.65 189.098L583.661 216.086C583.582 216.16 583.48 216.205 583.372 216.212L562.422 217.457C562.296 217.465 562.169 217.419 562.079 217.332L560.302 215.615C560.086 215.408 560.128 215.052 560.387 214.901L613.793 183.601ZM561.356 215.379L562.567 216.544L583.149 215.32L610.975 188.493L612.812 185.224L561.356 215.379ZM611.023 188.448L610.945 188.552L610.975 188.493L611.023 188.448ZM634.93 203.837C635.327 203.604 635.779 204.047 635.55 204.449L605.188 258.394C605.044 258.655 604.689 258.704 604.478 258.492L602.732 256.746C602.641 256.656 602.593 256.533 602.599 256.407L603.478 235.438C603.484 235.33 603.526 235.228 603.599 235.149L630.094 206.689L630.197 206.607L634.93 203.837ZM630.709 207.353L604.376 235.642L603.508 256.247L604.695 257.433L633.948 205.459L630.709 207.353Z" fill="#068D9D"/>
<path d="M648.226 178.958C653.212 178.958 657.259 174.914 657.259 169.925C657.259 164.937 653.212 160.893 648.226 160.893C643.24 160.893 639.193 164.937 639.193 169.925C639.193 174.914 643.24 178.958 648.226 178.958Z" fill="white"/>
<path d="M648.347 179.2C653.585 179.2 657.831 174.953 657.831 169.715C657.831 164.477 653.585 160.231 648.347 160.231C643.108 160.231 638.862 164.477 638.862 169.715C638.862 174.953 643.108 179.2 648.347 179.2ZM648.347 178.296C643.607 178.296 639.766 174.454 639.766 169.715C639.766 164.976 643.607 161.134 648.347 161.134C653.086 161.134 656.928 164.976 656.928 169.715C656.928 174.454 653.086 178.296 648.347 178.296Z" fill="#068D9D"/>
<path d="M648.226 174.593C645.649 174.593 643.559 172.504 643.559 169.926C643.559 167.349 645.649 165.259 648.226 165.259C650.803 165.259 652.893 167.349 652.893 169.926C652.893 172.504 650.803 174.593 648.226 174.593ZM648.226 173.69C650.303 173.69 651.99 172.005 651.99 169.926C651.99 167.848 650.303 166.162 648.226 166.162C646.148 166.162 644.462 167.848 644.462 169.926C644.462 172.005 646.148 173.69 648.226 173.69ZM656.951 144.061L657.566 143.402L673.662 158.456L673.048 159.116L656.951 144.061Z" fill="#068D9D"/>
<path d="M341.478 335.443C329.029 343.282 320.452 350.747 315.75 357.857C311.052 364.959 306.821 376.947 303.041 393.837L303.922 394.033C307.681 377.243 311.88 365.345 316.503 358.355C321.123 351.371 329.608 343.983 341.96 336.207L341.478 335.443Z" fill="#068D9D"/>
<path fill-rule="evenodd" clip-rule="evenodd" d="M167.024 437.621C171.878 439.348 176.369 440.66 180.497 441.557C184.536 442.435 189.281 443.194 194.733 443.833C195.89 443.968 196.718 445.015 196.582 446.172C196.571 446.261 196.556 446.349 196.534 446.436L196.475 446.673C196.176 447.871 195.021 448.649 193.798 448.475C188.729 447.754 183.994 446.954 179.594 446.073C175.129 445.18 170.623 443.639 166.075 441.449C165.084 440.971 164.564 439.864 164.831 438.797C165.056 437.896 165.968 437.35 166.868 437.574C166.921 437.588 166.973 437.603 167.024 437.621Z" fill="white"/>
<path d="M184.867 443.252C183.324 442.979 181.863 442.693 180.483 442.393C178.8 442.027 177.048 441.555 175.225 440.977L174.574 443.797C176.397 444.341 178.188 444.789 179.948 445.141C181.346 445.421 182.778 445.692 184.243 445.956L184.867 443.252ZM185.758 443.406L185.133 446.114C187.996 446.618 190.986 447.091 194.103 447.534C194.867 447.643 195.589 447.157 195.776 446.408L195.835 446.172C195.847 446.122 195.857 446.071 195.863 446.02C195.94 445.359 195.467 444.761 194.806 444.683C191.54 444.301 188.524 443.875 185.758 443.406ZM174.363 440.697C172.014 439.919 169.552 438.968 166.975 437.846C166.919 437.821 166.86 437.801 166.8 437.786C166.204 437.637 165.601 438 165.452 438.596L165.357 438.977C165.179 439.69 165.543 440.429 166.218 440.722C168.77 441.829 171.268 442.766 173.709 443.532L174.363 440.697ZM167.336 437.017C172.204 439.138 176.65 440.636 180.674 441.511C184.714 442.389 189.459 443.147 194.911 443.786C196.068 443.921 196.895 444.969 196.759 446.125C196.749 446.214 196.733 446.303 196.711 446.39L196.652 446.627C196.354 447.824 195.198 448.603 193.976 448.428C188.907 447.708 184.172 446.907 179.771 446.027C175.323 445.138 170.686 443.645 165.859 441.55C164.779 441.081 164.196 439.9 164.481 438.758L164.576 438.378C164.845 437.298 165.938 436.64 167.019 436.909C167.127 436.937 167.233 436.973 167.336 437.017Z" fill="#068D9D"/>
<path fill-rule="evenodd" clip-rule="evenodd" d="M113.496 388.213L117.711 386.407L121.926 395.138L117.711 397.848L113.496 388.213ZM127.647 391.525C126.522 391.525 125.392 391.34 124.636 390.622C123.827 389.854 123.431 388.514 123.431 387.31C123.431 386.347 123.791 385.009 124.335 384.299C125.105 383.294 126.282 383.095 127.647 383.095C128.862 383.095 129.889 383.176 130.658 383.998C131.362 384.752 131.862 386.197 131.862 387.31C131.862 388.7 131.394 390.155 130.357 390.923C129.656 391.442 128.585 391.525 127.647 391.525Z" fill="#AEECEF"/>
<path d="M113.201 387.978L118.231 385.822L122.808 395.302L117.811 398.515L113.201 387.978ZM118.214 397.182L121.647 394.975L117.793 386.992L114.393 388.449L118.214 397.182ZM127.948 391.977C126.506 391.977 125.403 391.687 124.626 390.95C123.766 390.133 123.281 388.723 123.281 387.31C123.281 386.204 123.692 384.789 124.278 384.025C125.068 382.993 126.186 382.643 127.948 382.643C129.626 382.643 130.512 382.859 131.289 383.69C132.061 384.515 132.615 386.062 132.615 387.31C132.615 388.958 132.025 390.474 130.926 391.286C130.224 391.806 129.282 391.977 127.948 391.977ZM127.948 391.074C129.1 391.074 129.889 390.931 130.389 390.561C131.227 389.94 131.712 388.696 131.712 387.31C131.712 386.282 131.237 384.957 130.629 384.307C130.072 383.712 129.396 383.547 127.948 383.547C126.439 383.547 125.575 383.817 124.994 384.575C124.539 385.169 124.184 386.391 124.184 387.31C124.184 388.495 124.588 389.668 125.248 390.295C125.821 390.839 126.716 391.074 127.948 391.074Z" fill="#068D9D"/>
<path d="M349.548 261.456H297.159C296.161 261.456 295.352 262.265 295.352 263.262C295.352 264.26 296.161 265.069 297.159 265.069H349.548C350.546 265.069 351.354 264.26 351.354 263.262C351.354 262.265 350.546 261.456 349.548 261.456Z" fill="white"/>
<path d="M297.159 261.456H349.548C350.546 261.456 351.354 262.265 351.354 263.262C351.354 264.26 350.546 265.069 349.548 265.069H297.159C296.161 265.069 295.352 264.26 295.352 263.262C295.352 262.265 296.161 261.456 297.159 261.456ZM297.159 262.359C296.66 262.359 296.255 262.764 296.255 263.262C296.255 263.762 296.66 264.166 297.159 264.166H349.548C350.046 264.166 350.451 263.762 350.451 263.262C350.451 262.764 350.046 262.359 349.548 262.359H297.159Z" fill="#068D9D"/>
<path d="M218.426 508.792L194.642 462.113C194.303 461.446 193.487 461.181 192.82 461.521C192.154 461.86 191.888 462.676 192.228 463.343L216.012 510.022C216.352 510.689 217.168 510.954 217.835 510.614C218.501 510.275 218.766 509.459 218.426 508.792Z" fill="white" stroke="#068D9D" stroke-width="1.5"/>
<path fill-rule="evenodd" clip-rule="evenodd" d="M203.892 388.701C202.176 390.154 194.136 383.981 192.416 383.253C191.492 382.863 191.06 381.796 191.451 380.872C191.809 380.024 192.745 379.578 193.629 379.834C198.911 381.358 201.889 382.465 202.562 383.151C204.268 384.892 205.608 387.246 203.892 388.701Z" fill="white"/>
<path fill-rule="evenodd" clip-rule="evenodd" d="M244.364 429.75L262.349 418.358C262.631 418.179 263.003 418.263 263.18 418.544C263.185 418.551 263.189 418.558 263.193 418.565L270.075 430.472C270.235 430.75 270.15 431.105 269.88 431.279L252.215 442.676C251.936 442.856 251.563 442.776 251.383 442.496C251.38 442.492 251.377 442.487 251.374 442.481L244.172 430.57C244.002 430.29 244.088 429.925 244.364 429.75Z" fill="white"/>
<path d="M243.518 429.932L262.413 418.125C262.695 417.949 263.067 418.035 263.243 418.317L270.902 430.573C271.078 430.855 270.992 431.227 270.71 431.403L251.815 443.209C251.533 443.386 251.162 443.3 250.985 443.018L243.327 430.762C243.151 430.48 243.237 430.109 243.518 429.932ZM244.253 430.538L251.592 442.284L269.976 430.796L262.637 419.051L244.253 430.538Z" fill="#068D9D"/>
<path d="M248.069 430.116L260.325 422.458C260.607 422.281 260.979 422.367 261.155 422.649L266.261 430.82C266.437 431.102 266.351 431.474 266.069 431.65L253.813 439.309C253.531 439.484 253.159 439.399 252.983 439.117L247.878 430.946C247.701 430.664 247.787 430.292 248.069 430.116ZM253.59 438.383L265.335 431.043L260.549 423.383L248.803 430.723L253.59 438.383Z" fill="#068D9D"/>
</svg>
