<svg width="14" height="10" viewBox="0 0 14 10" fill="none" xmlns="http://www.w3.org/2000/svg">
<path d="M4.9 5C6.44656 5 7.7 3.88066 7.7 2.5C7.7 1.11934 6.44656 0 4.9 0C3.35344 0 2.1 1.11934 2.1 2.5C2.1 3.88066 3.35344 5 4.9 5ZM6.00906 5.9375H3.79094C1.69684 5.9375 0 7.45312 0 9.32227C0 9.69727 0.3395 10 0.758187 10H9.04094C9.46094 10 9.8 9.69727 9.8 9.32227C9.8 7.45312 8.1025 5.9375 6.00906 5.9375ZM10.4803 6.25H8.86484C9.87 6.98633 10.5 8.08789 10.5 9.32227C10.5 9.57227 10.4169 9.80273 10.2812 10H13.3C13.6872 10 14 9.71875 14 9.35742C14 7.64844 12.4338 6.25 10.4803 6.25ZM9.45 5C10.8041 5 11.9 4.02148 11.9 2.8125C11.9 1.60352 10.8041 0.625 9.45 0.625C8.90072 0.625 8.39913 0.79209 7.9905 1.06465C8.2425 1.49668 8.4 1.98047 8.4 2.5C8.4 3.19375 8.13903 3.83086 7.70897 4.3498C8.15281 4.75 8.7675 5 9.45 5Z" fill="white"/>
</svg>
