<svg width="159" height="155" viewBox="0 0 159 155" fill="none" xmlns="http://www.w3.org/2000/svg">
<path fill-rule="evenodd" clip-rule="evenodd" d="M79.3764 0C35.534 0 0 35.534 0 79.3764C0 114.441 22.737 144.197 54.2838 154.702C58.255 155.418 59.6875 152.975 59.6875 150.874C59.6875 148.988 59.6238 143.99 59.6 137.377C37.5156 142.168 32.852 126.728 32.852 126.728C29.2548 117.56 24.0421 115.117 24.0421 115.117C16.8398 110.191 24.5913 110.302 24.5913 110.302C32.5655 110.86 36.7436 118.484 36.7436 118.484C43.8265 130.612 55.3343 127.11 59.8387 125.081C60.5629 119.948 62.6321 116.446 64.8923 114.465C47.2725 112.467 28.7455 105.655 28.7455 75.2301C28.7455 66.5794 31.8413 59.4806 36.8948 53.9416C36.091 51.9281 33.3454 43.8504 37.6827 32.9316C37.6827 32.9316 44.3438 30.7908 59.5045 41.057C65.9793 39.2956 72.6583 38.3965 79.3685 38.383C86.0788 38.3939 92.7581 39.2931 99.2325 41.057C114.401 30.7828 121.054 32.9316 121.054 32.9316C125.392 43.8504 122.67 51.9281 121.842 53.9416C126.935 59.4806 129.991 66.5715 129.991 75.2301C129.991 105.734 111.449 112.435 93.7651 114.401C96.5903 116.852 99.137 121.691 99.137 129.092C99.137 139.709 99.0415 148.272 99.0415 150.874C99.0415 152.999 100.458 155.466 104.509 154.686C136.04 144.165 158.753 114.433 158.753 79.3764C158.753 35.534 123.219 0 79.3764 0Z" fill="white"/>
</svg>
